<?xml version="1.0"?>
<svg version="1.1" xmlns="http://www.w3.org/2000/svg" width="120px" height="40px" style=""><path fill="#ed0c2a" d="M65.596,29.464c0,4.536-3.668,5.656-7.644,5.656l-5.208,0c-0.588,0-0.728-0.224-0.728-0.812l0-17.836c0-0.588,0.252-0.728,0.84-0.728l4.2,0c4.508,0,7.028,1.372,7.028,4.732c0,1.96-1.12,3.668-3.164,4.116l0,0.028c2.66,0.196,4.676,2.016,4.676,4.844z M60.556,20.896c0-1.82-1.428-2.408-3.388-2.408l-1.568,0l0,5.208l1.456,0c2.044,0,3.5-0.532,3.5-2.8z M61.928,29.352c0-1.316-0.588-2.156-1.484-2.604c-0.868-0.42-1.82-0.504-2.996-0.504l-1.848,0l0,6.104l2.072,0c0.98,0,1.932-0.084,2.632-0.364c0.98-0.42,1.624-1.288,1.624-2.632z M82.242,34.336c0,0.588-0.168,0.784-0.728,0.784l-1.792,0c-0.364,0-0.644-0.196-0.672-0.56l-0.028-0.7c-1.288,1.036-2.828,1.596-4.452,1.596c-3.136,0-4.424-1.988-4.424-5.012l0-8.26c0-0.476,0.28-0.644,0.728-0.644l1.96,0c0.448,0,0.7,0.14,0.7,0.644l0,7.672c0,1.54,0.392,2.604,2.072,2.604c1.064,0,2.408-0.588,3.248-1.344l0-8.932c0-0.476,0.252-0.644,0.7-0.644l1.988,0c0.448,0,0.7,0.14,0.7,0.644l0,12.152z M99.672,21.932c0,0.084-0.028,0.168-0.056,0.28l-5.516,14.504c-1.26,3.332-2.828,4.508-6.188,4.508c-0.532,0-1.008-0.028-1.484-0.14c-0.308-0.056-0.42-0.224-0.42-0.476c0-0.084,0.028-0.14,0.028-0.252l0.196-1.456c0.056-0.364,0.196-0.504,0.504-0.504l0.168,0c0.336,0.028,0.672,0.084,0.952,0.084c1.736,0,2.464-0.616,3.024-1.932l0.532-1.26l-5.096-13.132c-0.028-0.084-0.056-0.14-0.056-0.224c0-0.224,0.168-0.392,0.42-0.392l2.688,0c0.392,0,0.588,0.196,0.7,0.476l3.108,9.268l2.94-9.1c0.14-0.448,0.364-0.644,0.84-0.644l2.268,0c0.28,0,0.448,0.168,0.448,0.392z M107.246,17.984c0,1.092-0.952,1.764-1.876,1.764s-1.904-0.616-1.904-1.736s0.924-1.792,1.904-1.792c0.952,0,1.876,0.644,1.876,1.764z M107.078,34.42c0,0.504-0.224,0.7-0.7,0.7l-1.96,0c-0.504,0-0.728-0.196-0.728-0.7l0-12.236c0-0.476,0.28-0.644,0.728-0.644l1.96,0c0.448,0,0.7,0.14,0.7,0.644l0,12.236z M120.896,34.28c0,0.28-0.14,0.42-0.42,0.532c-0.868,0.364-2.016,0.644-3.136,0.644c-1.428,0-2.66-0.364-3.36-1.176c-0.868-0.98-0.896-2.128-0.896-4.172l0-6.244l-1.316,0c-0.532,0-0.616-0.112-0.616-0.7l0-1.064c0-0.336,0.168-0.56,0.504-0.56l1.428,0l0-3.052c0-0.476,0.252-0.616,0.7-0.672l2.016-0.252l0.14,0c0.364,0,0.532,0.196,0.532,0.616l0,3.36l3.164,0c0.336,0,0.532,0.112,0.532,0.476l0,1.316c0,0.336-0.224,0.532-0.56,0.532l-3.136,0l0,6.412c0,0.84,0.056,1.456,0.364,1.904c0.252,0.364,0.644,0.588,1.316,0.588c0.7,0,1.288-0.168,1.792-0.336c0.112-0.028,0.196-0.056,0.28-0.056c0.196,0,0.308,0.112,0.364,0.336l0.28,1.4c0.028,0.084,0.028,0.112,0.028,0.168z"/><path fill="#1784d1" d=""/></svg>
